<svg width="13" height="13" viewBox="0 0 13 13" fill="none" xmlns="http://www.w3.org/2000/svg">
<path d="M6.25 0C6.4572 0 6.65591 0.0823102 6.80243 0.228823C6.94894 0.375336 7.03125 0.57405 7.03125 0.78125V5.46875H11.7188C11.926 5.46875 12.1247 5.55106 12.2712 5.69757C12.4177 5.84409 12.5 6.0428 12.5 6.25C12.5 6.4572 12.4177 6.65591 12.2712 6.80243C12.1247 6.94894 11.926 7.03125 11.7188 7.03125H7.03125V11.7188C7.03125 11.926 6.94894 12.1247 6.80243 12.2712C6.65591 12.4177 6.4572 12.5 6.25 12.5C6.0428 12.5 5.84409 12.4177 5.69757 12.2712C5.55106 12.1247 5.46875 11.926 5.46875 11.7188V7.03125H0.78125C0.57405 7.03125 0.375336 6.94894 0.228823 6.80243C0.0823102 6.65591 0 6.4572 0 6.25C0 6.0428 0.0823102 5.84409 0.228823 5.69757C0.375336 5.55106 0.57405 5.46875 0.78125 5.46875H5.46875V0.78125C5.46875 0.57405 5.55106 0.375336 5.69757 0.228823C5.84409 0.0823102 6.0428 0 6.25 0Z" fill="white"/>
</svg>
