<svg width="23" height="24" viewBox="0 0 23 24" fill="none" xmlns="http://www.w3.org/2000/svg">
<path d="M18.1667 3.75H4.19235C3.03467 3.75 2.09619 4.75736 2.09619 6V19.5C2.09619 20.7426 3.03467 21.75 4.19235 21.75H18.1667C19.3244 21.75 20.2629 20.7426 20.2629 19.5V6C20.2629 4.75736 19.3244 3.75 18.1667 3.75Z" stroke="#264653" stroke-width="2" stroke-linejoin="round"/>
<path d="M12.9263 12C13.5051 12 13.9743 11.4963 13.9743 10.875C13.9743 10.2537 13.5051 9.75 12.9263 9.75C12.3474 9.75 11.8782 10.2537 11.8782 10.875C11.8782 11.4963 12.3474 12 12.9263 12Z" fill="#264653"/>
<path d="M16.4199 12C16.9987 12 17.468 11.4963 17.468 10.875C17.468 10.2537 16.9987 9.75 16.4199 9.75C15.8411 9.75 15.3718 10.2537 15.3718 10.875C15.3718 11.4963 15.8411 12 16.4199 12Z" fill="#264653"/>
<path d="M12.9263 15.75C13.5051 15.75 13.9743 15.2463 13.9743 14.625C13.9743 14.0037 13.5051 13.5 12.9263 13.5C12.3474 13.5 11.8782 14.0037 11.8782 14.625C11.8782 15.2463 12.3474 15.75 12.9263 15.75Z" fill="#264653"/>
<path d="M16.4199 15.75C16.9987 15.75 17.468 15.2463 17.468 14.625C17.468 14.0037 16.9987 13.5 16.4199 13.5C15.8411 13.5 15.3718 14.0037 15.3718 14.625C15.3718 15.2463 15.8411 15.75 16.4199 15.75Z" fill="#264653"/>
<path d="M5.93919 15.75C6.51803 15.75 6.98727 15.2463 6.98727 14.625C6.98727 14.0037 6.51803 13.5 5.93919 13.5C5.36035 13.5 4.89111 14.0037 4.89111 14.625C4.89111 15.2463 5.36035 15.75 5.93919 15.75Z" fill="#264653"/>
<path d="M9.4326 15.75C10.0114 15.75 10.4807 15.2463 10.4807 14.625C10.4807 14.0037 10.0114 13.5 9.4326 13.5C8.85376 13.5 8.38452 14.0037 8.38452 14.625C8.38452 15.2463 8.85376 15.75 9.4326 15.75Z" fill="#264653"/>
<path d="M5.93919 19.5C6.51803 19.5 6.98727 18.9963 6.98727 18.375C6.98727 17.7537 6.51803 17.25 5.93919 17.25C5.36035 17.25 4.89111 17.7537 4.89111 18.375C4.89111 18.9963 5.36035 19.5 5.93919 19.5Z" fill="#264653"/>
<path d="M9.4326 19.5C10.0114 19.5 10.4807 18.9963 10.4807 18.375C10.4807 17.7537 10.0114 17.25 9.4326 17.25C8.85376 17.25 8.38452 17.7537 8.38452 18.375C8.38452 18.9963 8.85376 19.5 9.4326 19.5Z" fill="#264653"/>
<path d="M12.9263 19.5C13.5051 19.5 13.9743 18.9963 13.9743 18.375C13.9743 17.7537 13.5051 17.25 12.9263 17.25C12.3474 17.25 11.8782 17.7537 11.8782 18.375C11.8782 18.9963 12.3474 19.5 12.9263 19.5Z" fill="#264653"/>
<path d="M5.58984 2.25V3.75M16.7694 2.25V3.75" stroke="#264653" stroke-width="2" stroke-linecap="round" stroke-linejoin="round"/>
<path d="M20.2629 7.5H2.09619" stroke="#264653" stroke-width="2" stroke-linejoin="round"/>
</svg>
