<svg width="21" height="21" viewBox="0 0 21 21" fill="none" xmlns="http://www.w3.org/2000/svg">
<path d="M19.25 7H1.75C1.28587 7 0.840752 7.18437 0.512563 7.51256C0.184374 7.84075 0 8.28587 0 8.75V19.25C0 19.7141 0.184374 20.1592 0.512563 20.4874C0.840752 20.8156 1.28587 21 1.75 21H19.25C19.7141 21 20.1592 20.8156 20.4874 20.4874C20.8156 20.1592 21 19.7141 21 19.25V8.75C21 8.28587 20.8156 7.84075 20.4874 7.51256C20.1592 7.18437 19.7141 7 19.25 7ZM19.25 19.25H1.75V8.75H19.25V19.25ZM1.75 4.375C1.75 4.14294 1.84219 3.92038 2.00628 3.75628C2.17038 3.59219 2.39294 3.5 2.625 3.5H18.375C18.6071 3.5 18.8296 3.59219 18.9937 3.75628C19.1578 3.92038 19.25 4.14294 19.25 4.375C19.25 4.60706 19.1578 4.82962 18.9937 4.99372C18.8296 5.15781 18.6071 5.25 18.375 5.25H2.625C2.39294 5.25 2.17038 5.15781 2.00628 4.99372C1.84219 4.82962 1.75 4.60706 1.75 4.375ZM3.5 0.875C3.5 0.642936 3.59219 0.420376 3.75628 0.256282C3.92038 0.0921872 4.14294 0 4.375 0H16.625C16.8571 0 17.0796 0.0921872 17.2437 0.256282C17.4078 0.420376 17.5 0.642936 17.5 0.875C17.5 1.10706 17.4078 1.32962 17.2437 1.49372C17.0796 1.65781 16.8571 1.75 16.625 1.75H4.375C4.14294 1.75 3.92038 1.65781 3.75628 1.49372C3.59219 1.32962 3.5 1.10706 3.5 0.875Z" fill="#264653"/>
</svg>
