<svg width="15" height="17" viewBox="0 0 15 17" fill="none" xmlns="http://www.w3.org/2000/svg">
<path d="M15 8.25C15 12.8064 11.6421 16.5 7.5 16.5C3.35785 16.5 0 12.8064 0 8.25C0 3.69364 3.35785 0 7.5 0C11.6421 0 15 3.69364 15 8.25ZM6.63248 12.6183L12.197 6.49734C12.3859 6.28949 12.3859 5.95248 12.197 5.74463L11.5127 4.99192C11.3238 4.78404 11.0174 4.78404 10.8284 4.99192L6.29032 9.98377L4.1716 7.65317C3.98265 7.44533 3.67627 7.44533 3.48729 7.65317L2.803 8.40589C2.61405 8.61373 2.61405 8.95075 2.803 9.1586L5.94817 12.6183C6.13715 12.8262 6.4435 12.8262 6.63248 12.6183Z" fill="#228B22" fill-opacity="0.75"/>
</svg>
