<svg width="16" height="15" viewBox="0 0 16 15" fill="none" xmlns="http://www.w3.org/2000/svg">
<path d="M15.2535 7.5C15.2535 11.6431 11.8386 15 7.62676 15C3.41491 15 0 11.6431 0 7.5C0 3.35936 3.41491 0 7.62676 0C11.8386 0 15.2535 3.35936 15.2535 7.5ZM7.62676 9.0121C6.84548 9.0121 6.21212 9.63493 6.21212 10.4032C6.21212 11.1715 6.84548 11.7944 7.62676 11.7944C8.40804 11.7944 9.0414 11.1715 9.0414 10.4032C9.0414 9.63493 8.40804 9.0121 7.62676 9.0121ZM6.28368 4.01171L6.5118 8.12462C6.52248 8.31708 6.6843 8.46774 6.88029 8.46774H8.37323C8.56921 8.46774 8.73104 8.31708 8.74171 8.12462L8.96984 4.01171C8.98137 3.80383 8.81306 3.62903 8.60135 3.62903H6.65213C6.44043 3.62903 6.27215 3.80383 6.28368 4.01171Z" fill="#9D1C1C" fill-opacity="0.75"/>
</svg>
