<svg width="20" height="18" viewBox="0 0 20 18" fill="none" xmlns="http://www.w3.org/2000/svg">
<g opacity="0.2">
<path d="M8.98748 4.6875C8.98748 5.68206 8.64316 6.63589 8.03026 7.33915C7.41735 8.04241 6.58608 8.4375 5.71931 8.4375C4.85253 8.4375 4.02126 8.04241 3.40836 7.33915C2.79546 6.63589 2.45113 5.68206 2.45113 4.6875C2.45113 3.69294 2.79546 2.73911 3.40836 2.03585C4.02126 1.33259 4.85253 0.9375 5.71931 0.9375C6.58608 0.9375 7.41735 1.33259 8.03026 2.03585C8.64316 2.73911 8.98748 3.69294 8.98748 4.6875Z" fill="#264653"/>
<path fill-rule="evenodd" clip-rule="evenodd" d="M5.71931 5.9375C6.00823 5.9375 6.28532 5.8058 6.48962 5.57138C6.69392 5.33696 6.8087 5.01902 6.8087 4.6875C6.8087 4.35598 6.69392 4.03804 6.48962 3.80362C6.28532 3.5692 6.00823 3.4375 5.71931 3.4375C5.43038 3.4375 5.15329 3.5692 4.94899 3.80362C4.74469 4.03804 4.62992 4.35598 4.62992 4.6875C4.62992 5.01902 4.74469 5.33696 4.94899 5.57138C5.15329 5.8058 5.43038 5.9375 5.71931 5.9375ZM5.71931 8.4375C6.14849 8.4375 6.57347 8.3405 6.96998 8.15205C7.3665 7.96359 7.72678 7.68737 8.03026 7.33915C8.33373 6.99093 8.57447 6.57753 8.73871 6.12256C8.90295 5.66759 8.98748 5.17996 8.98748 4.6875C8.98748 4.19504 8.90295 3.70741 8.73871 3.25244C8.57447 2.79747 8.33373 2.38407 8.03026 2.03585C7.72678 1.68763 7.3665 1.41141 6.96998 1.22295C6.57347 1.0345 6.14849 0.9375 5.71931 0.9375C4.85253 0.9375 4.02126 1.33259 3.40836 2.03585C2.79546 2.73911 2.45113 3.69294 2.45113 4.6875C2.45113 5.68206 2.79546 6.63589 3.40836 7.33915C4.02126 8.04241 4.85253 8.4375 5.71931 8.4375Z" fill="#264653"/>
<path fill-rule="evenodd" clip-rule="evenodd" d="M5.77378 9.375C5.34039 9.375 4.92475 9.57254 4.6183 9.92417C4.31185 10.2758 4.13969 10.7527 4.13969 11.25V13.125C4.13969 13.4565 4.02491 13.7745 3.82061 14.0089C3.61631 14.2433 3.33922 14.375 3.0503 14.375C2.76137 14.375 2.48428 14.2433 2.27998 14.0089C2.07568 13.7745 1.96091 13.4565 1.96091 13.125V11.25C1.96091 10.0897 2.36262 8.97688 3.07767 8.15641C3.79272 7.33594 4.76254 6.875 5.77378 6.875C6.78501 6.875 7.75483 7.33594 8.46988 8.15641C9.18493 8.97688 9.58665 10.0897 9.58665 11.25V11.875C9.58665 12.2065 9.47187 12.5245 9.26757 12.7589C9.06327 12.9933 8.78618 13.125 8.49726 13.125C8.20833 13.125 7.93124 12.9933 7.72694 12.7589C7.52264 12.5245 7.40786 12.2065 7.40786 11.875V11.25C7.40786 10.7527 7.2357 10.2758 6.92925 9.92417C6.6228 9.57254 6.20716 9.375 5.77378 9.375Z" fill="#264653"/>
<path d="M12.2557 4.6875C12.2557 5.68206 12.6 6.63589 13.2129 7.33915C13.8258 8.04241 14.6571 8.4375 15.5238 8.4375C16.3906 8.4375 17.2219 8.04241 17.8348 7.33915C18.4477 6.63589 18.792 5.68206 18.792 4.6875C18.792 3.69294 18.4477 2.73911 17.8348 2.03585C17.2219 1.33259 16.3906 0.9375 15.5238 0.9375C14.6571 0.9375 13.8258 1.33259 13.2129 2.03585C12.6 2.73911 12.2557 3.69294 12.2557 4.6875Z" fill="#264653"/>
<path fill-rule="evenodd" clip-rule="evenodd" d="M15.5238 5.9375C15.2349 5.9375 14.9578 5.8058 14.7535 5.57138C14.5492 5.33696 14.4344 5.01902 14.4344 4.6875C14.4344 4.35598 14.5492 4.03804 14.7535 3.80362C14.9578 3.5692 15.2349 3.4375 15.5238 3.4375C15.8128 3.4375 16.0898 3.5692 16.2941 3.80362C16.4984 4.03804 16.6132 4.35598 16.6132 4.6875C16.6132 5.01902 16.4984 5.33696 16.2941 5.57138C16.0898 5.8058 15.8128 5.9375 15.5238 5.9375ZM15.5238 8.4375C15.0946 8.4375 14.6697 8.3405 14.2732 8.15205C13.8766 7.96359 13.5164 7.68737 13.2129 7.33915C12.9094 6.99093 12.6687 6.57753 12.5044 6.12256C12.3402 5.66759 12.2557 5.17996 12.2557 4.6875C12.2557 4.19504 12.3402 3.70741 12.5044 3.25244C12.6687 2.79747 12.9094 2.38407 13.2129 2.03585C13.5164 1.68763 13.8766 1.41141 14.2732 1.22295C14.6697 1.0345 15.0946 0.9375 15.5238 0.9375C16.3906 0.9375 17.2219 1.33259 17.8348 2.03585C18.4477 2.73911 18.792 3.69294 18.792 4.6875C18.792 5.68206 18.4477 6.63589 17.8348 7.33915C17.2219 8.04241 16.3906 8.4375 15.5238 8.4375Z" fill="#264653"/>
<path fill-rule="evenodd" clip-rule="evenodd" d="M15.4694 9.375C15.9028 9.375 16.3184 9.57254 16.6248 9.92417C16.9313 10.2758 17.1035 10.7527 17.1035 11.25V13.125C17.1035 13.4565 17.2182 13.7745 17.4225 14.0089C17.6268 14.2433 17.9039 14.375 18.1928 14.375C18.4818 14.375 18.7589 14.2433 18.9632 14.0089C19.1675 13.7745 19.2822 13.4565 19.2822 13.125V11.25C19.2822 10.0897 18.8805 8.97688 18.1655 8.15641C17.4504 7.33594 16.4806 6.875 15.4694 6.875C14.4581 6.875 13.4883 7.33594 12.7733 8.15641C12.0582 8.97688 11.6565 10.0897 11.6565 11.25V11.875C11.6565 12.2065 11.7713 12.5245 11.9756 12.7589C12.1799 12.9933 12.457 13.125 12.7459 13.125C13.0348 13.125 13.3119 12.9933 13.5162 12.7589C13.7205 12.5245 13.8353 12.2065 13.8353 11.875V11.25C13.8353 10.7527 14.0074 10.2758 14.3139 9.92417C14.6203 9.57254 15.036 9.375 15.4694 9.375Z" fill="#264653"/>
<path fill-rule="evenodd" clip-rule="evenodd" d="M10.676 12.8125C10.2426 12.8125 9.82701 13.01 9.52056 13.3617C9.21411 13.7133 9.04195 14.1902 9.04195 14.6875V16.5625C9.04195 16.894 8.92717 17.212 8.72287 17.4464C8.51857 17.6808 8.24148 17.8125 7.95256 17.8125C7.66363 17.8125 7.38654 17.6808 7.18224 17.4464C6.97794 17.212 6.86317 16.894 6.86317 16.5625V14.6875C6.86317 13.5272 7.26488 12.4144 7.97993 11.5939C8.69498 10.7734 9.6648 10.3125 10.676 10.3125C11.6873 10.3125 12.6571 10.7734 13.3721 11.5939C14.0872 12.4144 14.4889 13.5272 14.4889 14.6875V16.5625C14.4889 16.894 14.3741 17.212 14.1698 17.4464C13.9655 17.6808 13.6884 17.8125 13.3995 17.8125C13.1106 17.8125 12.8335 17.6808 12.6292 17.4464C12.4249 17.212 12.3101 16.894 12.3101 16.5625V14.6875C12.3101 14.1902 12.138 13.7133 11.8315 13.3617C11.5251 13.01 11.1094 12.8125 10.676 12.8125Z" fill="#264653"/>
<path d="M13.8897 8.125C13.8897 9.11956 13.5454 10.0734 12.9325 10.7767C12.3196 11.4799 11.4883 11.875 10.6216 11.875C9.75479 11.875 8.92352 11.4799 8.31062 10.7767C7.69772 10.0734 7.35339 9.11956 7.35339 8.125C7.35339 7.13044 7.69772 6.17661 8.31062 5.47335C8.92352 4.77009 9.75479 4.375 10.6216 4.375C11.4883 4.375 12.3196 4.77009 12.9325 5.47335C13.5454 6.17661 13.8897 7.13044 13.8897 8.125Z" fill="#264653"/>
<path fill-rule="evenodd" clip-rule="evenodd" d="M10.6216 9.375C10.9105 9.375 11.1876 9.2433 11.3919 9.00888C11.5962 8.77446 11.711 8.45652 11.711 8.125C11.711 7.79348 11.5962 7.47554 11.3919 7.24112C11.1876 7.0067 10.9105 6.875 10.6216 6.875C10.3326 6.875 10.0556 7.0067 9.85125 7.24112C9.64695 7.47554 9.53218 7.79348 9.53218 8.125C9.53218 8.45652 9.64695 8.77446 9.85125 9.00888C10.0556 9.2433 10.3326 9.375 10.6216 9.375ZM10.6216 11.875C11.4883 11.875 12.3196 11.4799 12.9325 10.7767C13.5454 10.0734 13.8897 9.11956 13.8897 8.125C13.8897 7.13044 13.5454 6.17661 12.9325 5.47335C12.3196 4.77009 11.4883 4.375 10.6216 4.375C9.75479 4.375 8.92352 4.77009 8.31062 5.47335C7.69772 6.17661 7.35339 7.13044 7.35339 8.125C7.35339 9.11956 7.69772 10.0734 8.31062 10.7767C8.92352 11.4799 9.75479 11.875 10.6216 11.875Z" fill="#264653"/>
<path d="M2.99583 9.375H8.44278V14.375H2.99583V9.375ZM12.8003 9.375H18.2473V14.375H12.8003V9.375Z" fill="#264653"/>
<path d="M8.44278 11.875H12.8003L13.345 17.8125H7.89809L8.44278 11.875Z" fill="#264653"/>
</g>
<path fill-rule="evenodd" clip-rule="evenodd" d="M3.81287 6.25C4.39072 6.25 4.9449 5.98661 5.3535 5.51777C5.7621 5.04893 5.99165 4.41304 5.99165 3.75C5.99165 3.08696 5.7621 2.45107 5.3535 1.98223C4.9449 1.51339 4.39072 1.25 3.81287 1.25C3.23502 1.25 2.68084 1.51339 2.27223 1.98223C1.86363 2.45107 1.63408 3.08696 1.63408 3.75C1.63408 4.41304 1.86363 5.04893 2.27223 5.51777C2.68084 5.98661 3.23502 6.25 3.81287 6.25ZM3.81287 7.5C4.24205 7.5 4.66703 7.403 5.06354 7.21455C5.46006 7.02609 5.82034 6.74987 6.12382 6.40165C6.42729 6.05343 6.66803 5.64003 6.83227 5.18506C6.99651 4.73009 7.08104 4.24246 7.08104 3.75C7.08104 3.25754 6.99651 2.76991 6.83227 2.31494C6.66803 1.85997 6.42729 1.44657 6.12382 1.09835C5.82034 0.75013 5.46006 0.473907 5.06354 0.285452C4.66703 0.0969969 4.24205 -7.33818e-09 3.81287 0C2.94609 1.48201e-08 2.11482 0.395088 1.50192 1.09835C0.889018 1.80161 0.544693 2.75544 0.544693 3.75C0.544693 4.74456 0.889018 5.69839 1.50192 6.40165C2.11482 7.10491 2.94609 7.5 3.81287 7.5Z" fill="#264653"/>
<path fill-rule="evenodd" clip-rule="evenodd" d="M2.56443 6.1199C2.61515 6.17795 2.6554 6.24692 2.68286 6.32286C2.71032 6.39879 2.72445 6.48019 2.72445 6.5624C2.72445 6.64461 2.71032 6.72601 2.68286 6.80194C2.6554 6.87787 2.61515 6.94684 2.56443 7.0049L2.19621 7.42615C1.4876 8.23945 1.08948 9.34237 1.08939 10.4924V12.8124C1.08939 12.9782 1.032 13.1371 0.929854 13.2543C0.827703 13.3715 0.689158 13.4374 0.544696 13.4374C0.400233 13.4374 0.261688 13.3715 0.159538 13.2543C0.0573874 13.1371 0 12.9782 0 12.8124V10.4924C0.000154431 9.01087 0.513088 7.59007 1.42601 6.5424L1.79314 6.1199C1.84374 6.06169 1.90384 6.01551 1.97002 5.98401C2.03619 5.9525 2.10714 5.93628 2.17878 5.93628C2.25043 5.93628 2.32137 5.9525 2.38755 5.98401C2.45372 6.01551 2.51383 6.06169 2.56443 6.1199ZM15.4105 5.7449C15.3598 5.80295 15.3196 5.87192 15.2921 5.94785C15.2646 6.02379 15.2505 6.10519 15.2505 6.1874C15.2505 6.26961 15.2646 6.35101 15.2921 6.42694C15.3196 6.50287 15.3598 6.57184 15.4105 6.6299L15.7787 7.05115C16.1297 7.45382 16.408 7.93185 16.5979 8.45796C16.7878 8.98407 16.8856 9.54795 16.8856 10.1174V12.8124C16.8856 12.9782 16.943 13.1371 17.0451 13.2543C17.1473 13.3715 17.2858 13.4374 17.4303 13.4374C17.5747 13.4374 17.7133 13.3715 17.8154 13.2543C17.9176 13.1371 17.975 12.9782 17.975 12.8124V10.1174C17.9748 8.63587 17.4619 7.21507 16.5489 6.1674L16.1818 5.7449C16.1312 5.68669 16.0711 5.64051 16.0049 5.60901C15.9388 5.5775 15.8678 5.56128 15.7962 5.56128C15.7245 5.56128 15.6536 5.5775 15.5874 5.60901C15.5212 5.64051 15.4611 5.68669 15.4105 5.7449Z" fill="#264653"/>
<path fill-rule="evenodd" clip-rule="evenodd" d="M13.6174 6.25C13.0395 6.25 12.4854 5.98661 12.0768 5.51777C11.6682 5.04892 11.4386 4.41304 11.4386 3.75C11.4386 3.08696 11.6682 2.45107 12.0768 1.98223C12.4854 1.51339 13.0395 1.25 13.6174 1.25C14.1952 1.25 14.7494 1.51339 15.158 1.98223C15.5666 2.45107 15.7962 3.08696 15.7962 3.75C15.7962 4.41304 15.5666 5.04892 15.158 5.51777C14.7494 5.98661 14.1952 6.25 13.6174 6.25ZM13.6174 7.5C13.1882 7.5 12.7632 7.403 12.3667 7.21455C11.9702 7.02609 11.6099 6.74987 11.3064 6.40165C11.003 6.05343 10.7622 5.64003 10.598 5.18506C10.4338 4.73009 10.3492 4.24246 10.3492 3.75C10.3492 3.25754 10.4338 2.76991 10.598 2.31494C10.7622 1.85997 11.003 1.44657 11.3064 1.09835C11.6099 0.75013 11.9702 0.473907 12.3667 0.285452C12.7632 0.0969969 13.1882 -7.33818e-09 13.6174 0C14.4842 1.48201e-08 15.3154 0.395088 15.9283 1.09835C16.5412 1.80161 16.8856 2.75544 16.8856 3.75C16.8856 4.74456 16.5412 5.69839 15.9283 6.40165C15.3154 7.10491 14.4842 7.5 13.6174 7.5ZM8.71513 11.5625C7.99282 11.5625 7.30009 11.8917 6.78934 12.4778C6.27859 13.0638 5.99165 13.8587 5.99165 14.6875V16.3125C5.99165 16.4783 5.93426 16.6372 5.83211 16.7544C5.72996 16.8717 5.59142 16.9375 5.44696 16.9375C5.30249 16.9375 5.16395 16.8717 5.0618 16.7544C4.95965 16.6372 4.90226 16.4783 4.90226 16.3125V14.6875C4.90226 13.5272 5.30397 12.4144 6.01902 11.5939C6.73408 10.7734 7.70389 10.3125 8.71513 10.3125C9.72637 10.3125 10.6962 10.7734 11.4112 11.5939C12.1263 12.4144 12.528 13.5272 12.528 14.6875V16.3125C12.528 16.4783 12.4706 16.6372 12.3685 16.7544C12.2663 16.8717 12.1278 16.9375 11.9833 16.9375C11.8388 16.9375 11.7003 16.8717 11.5981 16.7544C11.496 16.6372 11.4386 16.4783 11.4386 16.3125V14.6875C11.4386 14.2771 11.3682 13.8708 11.2313 13.4916C11.0944 13.1125 10.8938 12.768 10.6409 12.4778C10.388 12.1876 10.0878 11.9574 9.75736 11.8004C9.42693 11.6433 9.07278 11.5625 8.71513 11.5625Z" fill="#264653"/>
<path fill-rule="evenodd" clip-rule="evenodd" d="M8.71513 9.6875C9.29298 9.6875 9.84717 9.42411 10.2558 8.95527C10.6644 8.48643 10.8939 7.85054 10.8939 7.1875C10.8939 6.52446 10.6644 5.88857 10.2558 5.41973C9.84717 4.95089 9.29298 4.6875 8.71513 4.6875C8.13729 4.6875 7.5831 4.95089 7.1745 5.41973C6.7659 5.88857 6.53635 6.52446 6.53635 7.1875C6.53635 7.85054 6.7659 8.48643 7.1745 8.95527C7.5831 9.42411 8.13729 9.6875 8.71513 9.6875ZM8.71513 10.9375C9.58191 10.9375 10.4132 10.5424 11.0261 9.83915C11.639 9.13589 11.9833 8.18206 11.9833 7.1875C11.9833 6.19294 11.639 5.23911 11.0261 4.53585C10.4132 3.83259 9.58191 3.4375 8.71513 3.4375C7.84836 3.4375 7.01709 3.83259 6.40419 4.53585C5.79129 5.23911 5.44696 6.19294 5.44696 7.1875C5.44696 8.18206 5.79129 9.13589 6.40419 9.83915C7.01709 10.5424 7.84836 10.9375 8.71513 10.9375Z" fill="#264653"/>
</svg>
