<svg width="21" height="21" viewBox="0 0 21 21" fill="none" xmlns="http://www.w3.org/2000/svg">
<path d="M10.5 21C9.0549 21 7.69379 20.7239 6.41667 20.1717C5.13956 19.6187 4.02734 18.8681 3.08001 17.92C2.13267 16.9719 1.38212 15.8597 0.82834 14.5833C0.274562 13.307 -0.00154902 11.9459 6.53595e-06 10.5C6.53595e-06 9.05022 0.276118 7.68794 0.82834 6.41317C1.38134 5.13761 2.1319 4.02656 3.08001 3.08C4.02812 2.13344 5.14034 1.38289 6.41667 0.828333C7.69379 0.276111 9.0549 0 10.5 0C11.9498 0 13.3121 0.276111 14.5868 0.828333C15.8624 1.38133 16.9738 2.13189 17.9212 3.08C18.8685 4.02811 19.6187 5.13917 20.1717 6.41317C20.7239 7.68872 21 9.051 21 10.5C21 11.9451 20.7239 13.3062 20.1717 14.5833C19.6187 15.8604 18.8681 16.9727 17.92 17.92C16.9719 18.8673 15.8608 19.6179 14.5868 20.1717C13.3128 20.7254 11.9506 21.0016 10.5 21ZM10.5 19.8427C11.1845 18.963 11.7491 18.0993 12.194 17.2515C12.6381 16.4037 12.9994 15.4548 13.2778 14.4048H7.72217C8.03095 15.5139 8.39962 16.4924 8.82817 17.3402C9.25751 18.1879 9.81479 19.0221 10.5 19.8427ZM9.01484 19.6677C8.4704 19.026 7.9734 18.2327 7.52384 17.2877C7.07429 16.3434 6.73984 15.3821 6.52051 14.4037H2.04634C2.71523 15.8542 3.66295 17.0442 4.88951 17.9737C6.11684 18.9023 7.49195 19.467 9.01484 19.6677ZM11.9852 19.6677C13.5081 19.467 14.8832 18.9023 16.1105 17.9737C17.3371 17.0442 18.2848 15.8542 18.9537 14.4037H14.4807C14.1851 15.3969 13.813 16.3656 13.3642 17.3098C12.9146 18.2548 12.455 19.0416 11.9852 19.6677ZM1.57034 13.2382H6.27784C6.18917 12.7591 6.12695 12.2924 6.09117 11.8382C6.05384 11.3847 6.03517 10.9387 6.03517 10.5C6.03517 10.0613 6.05345 9.61528 6.09001 9.16183C6.12656 8.70839 6.18879 8.24172 6.27667 7.76183H1.57151C1.44473 8.16628 1.34556 8.60689 1.27401 9.08367C1.20245 9.55967 1.16667 10.0318 1.16667 10.5C1.16667 10.9682 1.20206 11.4407 1.27284 11.9175C1.34362 12.3943 1.44278 12.8341 1.57034 13.237M7.44451 13.237H13.5555C13.6442 12.7587 13.7064 12.2998 13.7422 11.8603C13.7795 11.4217 13.7982 10.9682 13.7982 10.5C13.7982 10.0318 13.7799 9.57833 13.7433 9.13967C13.7068 8.701 13.6446 8.24211 13.5567 7.763H7.44334C7.35545 8.24133 7.29323 8.70022 7.25667 9.13967C7.22012 9.57833 7.20184 10.0318 7.20184 10.5C7.20184 10.9682 7.22012 11.4217 7.25667 11.8603C7.29323 12.299 7.35662 12.7579 7.44451 13.237ZM14.7233 13.237H19.4297C19.5565 12.8333 19.6556 12.3935 19.7272 11.9175C19.798 11.4407 19.8333 10.9682 19.8333 10.5C19.8333 10.0318 19.798 9.55928 19.7272 9.0825C19.6564 8.60572 19.5572 8.16589 19.4297 7.763H14.7222C14.8108 8.24133 14.8731 8.70761 14.9088 9.16183C14.9462 9.61606 14.9648 10.0621 14.9648 10.5C14.9648 10.9379 14.9466 11.3839 14.91 11.8382C14.8735 12.2924 14.8112 12.7591 14.7233 13.2382M14.4807 6.59633H18.9537C18.27 5.11545 17.3336 3.92544 16.1443 3.02633C14.9551 2.12722 13.5687 1.55517 11.9852 1.31017C12.5296 2.0265 13.0192 2.84589 13.454 3.76833C13.8888 4.69 14.231 5.63267 14.4807 6.59633ZM7.72217 6.59633H13.2778C12.9698 5.50122 12.5899 4.51111 12.138 3.626C11.6861 2.74089 11.1401 1.918 10.5 1.15733C9.8599 1.91722 9.3139 2.74011 8.86201 3.626C8.41012 4.51189 8.0294 5.502 7.72217 6.59633ZM2.04751 6.59633H6.52051C6.77017 5.63345 7.1124 4.69078 7.54717 3.76833C7.98195 2.84589 8.47156 2.0265 9.01601 1.31017C7.41845 1.55594 6.02856 2.1315 4.84634 3.03683C3.66412 3.94372 2.73078 5.12983 2.04634 6.59517" 
fill="#FFFFFF"/>
</svg>
