<svg width="18" height="24" viewBox="0 0 18 24" fill="none" xmlns="http://www.w3.org/2000/svg">
<path d="M8.93483 0C4.00224 0 0 3.45589 0 7.71429C0 14.5714 8.93483 24 8.93483 24C8.93483 24 17.8697 14.5714 17.8697 7.71429C17.8697 3.45589 13.8674 0 8.93483 0ZM8.93483 12C8.22797 12 7.53699 11.7989 6.94926 11.4222C6.36153 11.0454 5.90345 10.51 5.63295 9.88349C5.36244 9.257 5.29167 8.56763 5.42957 7.90255C5.56747 7.23747 5.90785 6.62656 6.40768 6.14706C6.9075 5.66757 7.54431 5.34103 8.23759 5.20874C8.93086 5.07644 9.64946 5.14434 10.3025 5.40384C10.9556 5.66334 11.5137 6.10279 11.9064 6.66662C12.2991 7.23044 12.5088 7.89332 12.5088 8.57143C12.5077 9.48044 12.1309 10.3519 11.4608 10.9947C10.7908 11.6375 9.88237 11.999 8.93483 12Z" fill="#264653"/>
</svg>
