<svg width="20" height="18" viewBox="0 0 20 18" fill="none" xmlns="http://www.w3.org/2000/svg">
<path d="M3.5 0H16.3333C17.2616 0 18.1518 0.368749 18.8082 1.02513C19.4646 1.6815 19.8333 2.57174 19.8333 3.5V14C19.8333 14.9283 19.4646 15.8185 18.8082 16.4749C18.1518 17.1313 17.2616 17.5 16.3333 17.5H3.5C2.57174 17.5 1.6815 17.1313 1.02513 16.4749C0.368749 15.8185 0 14.9283 0 14V3.5C0 2.57174 0.368749 1.6815 1.02513 1.02513C1.6815 0.368749 2.57174 0 3.5 0ZM1.16667 14C1.16667 14.6188 1.4125 15.2123 1.85008 15.6499C2.28767 16.0875 2.88116 16.3333 3.5 16.3333H9.33333V12.8333H1.16667V14ZM9.33333 8.16667H1.16667V11.6667H9.33333V8.16667ZM16.3333 16.3333C16.9522 16.3333 17.5457 16.0875 17.9832 15.6499C18.4208 15.2123 18.6667 14.6188 18.6667 14V12.8333H10.5V16.3333H16.3333ZM18.6667 8.16667H10.5V11.6667H18.6667V8.16667ZM1.16667 7H9.33333V3.5H1.16667V7ZM10.5 7H18.6667V3.5H10.5V7Z" fill="#264653"/>
</svg>
